# xmcd CD database file
#
# Track frame offsets:
#	150
#	14263
#	30065
#	45730
#	59877
#	71226
#	86305
#	98892
#	112083
#	124580
#	142398
#	153087
#	166946
#	181201
#
# Disc length: 2606 seconds
#
# Revision: 1
# Processed by: cddbd v1.5.2PL0 Copyright (c) Steve Scherf et al.
# Submitted via: CDex 1.50Beta7
#
DISCID=ba0a2c0e
DTITLE=Truck Stop - Bitte recht freundlich
DYEAR=1979
DGENRE=Country
TTITLE0=Angeln entspannt
TTITLE1=Weißt du was ich könnte
TTITLE2=10 000 Geiger
TTITLE3=Rosie (woll'n wir nochmal drüber reden?)
TTITLE4=Chiffre 107
TTITLE5=Wozu soll ich weinen?
TTITLE6=Treib dich nicht rum
TTITLE7=Heut' Nacht läßt mich der Schnaps im Stich
TTITLE8=Jana
TTITLE9=Mutter
TTITLE10=Osnabrück hin und zurück
TTITLE11=Er muß gehn
TTITLE12=Hey, hast schon Recht
TTITLE13=1:100 000
EXTD=YEAR: 1979
EXTT0=
EXTT1=
EXTT2=
EXTT3=
EXTT4=
EXTT5=
EXTT6=
EXTT7=
EXTT8=
EXTT9=
EXTT10=
EXTT11=
EXTT12=
EXTT13=
PLAYORDER=
